<?xml version="1.0" encoding="utf-8"?>
<!-- Generator: Adobe Illustrator 15.1.0, SVG Export Plug-In . SVG Version: 6.00 Build 0)  -->
<!DOCTYPE svg PUBLIC "-//W3C//DTD SVG 1.1//EN" "http://www.w3.org/Graphics/SVG/1.1/DTD/svg11.dtd">
<svg version="1.1" id="Layer_1" xmlns="http://www.w3.org/2000/svg" xmlns:xlink="http://www.w3.org/1999/xlink" x="0px" y="0px" viewBox="0 0 288 57.073" enable-background="new 0 0 288 57.073" xml:space="preserve">
<g>
	<defs>
		<rect id="SVGID_1_" width="288" height="57.073"/>
	</defs>
	<clipPath id="SVGID_2_">
		<use xlink:href="#SVGID_1_"  overflow="visible"/>
	</clipPath>
	<path clip-path="url(#SVGID_2_)" fill="#262626" d="M86.598,36.765c-2.529,2.528-6.22,3.692-11.428,3.692h-5.46l0.201-28.607h5.512
		c4.753,0,8.089,0.555,11.021,3.134c2.528,2.224,4.097,5.96,4.097,10.662C90.541,30.552,88.973,34.389,86.598,36.765 M77.444,8.457
		H61.568v3.393h3.994L65.36,40.457h-3.792v3.395h14.157c11.933,0,19.467-5.765,19.467-18.204
		C95.192,13.919,88.012,8.457,77.444,8.457"/>
	<path clip-path="url(#SVGID_2_)" fill="#262626" d="M161.467,34.017c0-4.348,0.102-8.478,0.201-12.903h8.204v-3.395h-8.152
		l0.201-6.604l-4.254,0.242l-0.093,6.362h-4.156v3.395h4.103c-0.049,3.872-0.2,11.588-0.2,14.774c0,3.337,0,8.556,7.281,8.556
		c2.125,0,4.55-0.55,5.863-1.209l0.152-3.498c-1.113,0.454-3.033,1.051-5.159,1.051C161.467,40.788,161.467,37.759,161.467,34.017"
		/>
	<path clip-path="url(#SVGID_2_)" fill="#262626" d="M182.788,41.269c-2.682,0-4.904-1.567-4.904-4.501
		c0-4.905,6.219-4.905,12.388-4.905C190.271,39.129,185.477,41.269,182.788,41.269 M194.215,26.559c0-6.926-3.618-9.407-10.34-9.407
		c-3.187,0-6.278,0.856-9.182,2.022v6.289h3.84v-4.067c1.937-0.808,4.297-0.952,5.761-0.952c4.099,0,6.022,1.762,6.022,6.666v1.871
		c-9.135,0-16.555,0.422-16.555,7.989c0,6.371,5.094,7.482,8.075,7.482c4.604,0,7.17-2.122,8.735-6.27h0.103
		c-0.202,0.968-0.496,3.087-0.496,4.604v1.065h6.775v-3.396h-2.935C194.02,35.757,194.215,28.833,194.215,26.559"/>
	<path clip-path="url(#SVGID_2_)" fill="#262626" d="M210.815,28.678c-3.843-0.656-6.317-1.517-6.317-4.347
		c0-2.85,3.62-3.994,5.965-3.994c1.212,0,3.639,0.18,4.598,0.989l0.096,3.72h3.851l-0.204-6.3c-2.02-0.859-6.066-1.581-8.239-1.581
		c-7.483,0-10.267,3.634-10.267,7.831c0,5.106,3.49,6.315,10.468,7.832c2.832,0.606,5.457,1.515,5.457,4.093
		c0,2.901-3.518,4.348-5.963,4.348c-1.718,0-4.348-0.388-5.914-1.145l-0.096-3.878h-3.851l0.204,6.659
		c1.618,0.859,6.118,1.559,8.95,1.559c7.532,0,10.668-3.697,10.668-8.349C220.221,31.817,217.439,29.791,210.815,28.678"/>
	<polygon clip-path="url(#SVGID_2_)" fill="#262626" points="243.289,40.457 231.311,40.457 231.514,11.852 235.217,11.852 
		235.217,8.456 223.05,8.456 223.05,11.852 227.166,11.852 226.964,40.457 223.05,40.457 223.05,43.852 247.137,43.852 
		247.164,35.142 243.453,35.142 	"/>
	<path clip-path="url(#SVGID_2_)" fill="#262626" d="M258.418,40.563h-3.286l0.102-13.303h4.248c4.195,0,9.302,0.865,9.302,6.73
		C268.783,40.613,262.717,40.563,258.418,40.563 M255.333,11.743h4.298c2.326,0,7.129-0.104,7.129,5.963
		c0,5.36-4.549,6.374-8.999,6.374h-2.527L255.333,11.743z M264.235,25.291v-0.102c3.872-0.657,6.875-3.437,6.875-8.139
		c0-3.691-1.771-6.217-4.45-7.481c-2.021-0.962-3.943-1.113-7.383-1.113h-12.326v3.396h4.032l-0.298,31.998h10.211
		c6.318,0,12.542-2.277,12.542-9.861C273.438,28.277,268.798,25.239,264.235,25.291"/>
	<polygon clip-path="url(#SVGID_2_)" fill="#262626" points="107.193,17.719 98.927,17.719 98.927,21.112 103.047,21.112 
		102.845,40.457 99.341,40.457 99.341,43.852 110.401,43.852 110.401,40.457 106.991,40.457 	"/>
	<polygon clip-path="url(#SVGID_2_)" fill="#262626" points="148.291,17.719 140.024,17.719 140.024,21.112 144.145,21.112 
		143.943,40.457 140.439,40.457 140.439,43.852 151.499,43.852 151.499,40.457 148.089,40.457 	"/>
	<polygon clip-path="url(#SVGID_2_)" fill="#262626" points="276.523,17.719 276.523,21.112 280.645,21.112 280.445,40.456 
		276.939,40.456 276.939,43.851 288,43.851 288,40.456 284.59,40.456 284.79,17.719 	"/>
	<path clip-path="url(#SVGID_2_)" fill="#262626" d="M124.928,53.917c-2.555,0-8.617-0.551-8.617-4.56
		c0-3.406,5.161-4.646,5.662-4.646l6.915,1.003c2.303,0.35,4.408,0.786,4.408,3.092C133.296,52.393,128.135,53.917,124.928,53.917
		 M117.062,26.86c0-3.807,2.956-6.049,7.015-6.049c4.96,0,6.864,3.393,6.864,5.899c0,3.607-2.806,6.515-7.213,6.515
		C120.118,33.225,117.062,30.467,117.062,26.86 M130.442,42.143l-6.915-1.153c-3.258-0.502-4.246-0.852-4.246-2.154
		c0-1.854,3.392-2.509,4.446-2.509c6.062,0,10.922-3.403,10.922-9.167c0-1.799-0.323-3.757-1.874-5.588
		c-0.251-0.295-0.484-0.549-0.694-0.768l4.503,0.499V17.72l-9.269,0.186l0.01,0.018c-0.994-0.289-2.14-0.485-3.448-0.485
		c-6.313,0-10.691,4.01-10.691,9.371c0,6.564,4.724,8.316,6.545,8.718v0.101c-2.211,0.55-4.725,1.251-4.725,3.906
		c0,2.405,1.864,3.558,3.944,4.01v0.101c-3.381,0.75-6.531,2.453-6.531,6.362c0,5.061,6.104,7.066,12.317,7.066
		c6.464,0,12.672-2.705,12.672-8.668C137.408,44.247,134.451,42.792,130.442,42.143"/>
	<path clip-path="url(#SVGID_2_)" fill="#262626" d="M104.602,8.389c-1.699,0-3.08,1.381-3.08,3.08c0,1.699,1.381,3.08,3.08,3.08
		c1.697,0,3.08-1.381,3.08-3.08C107.682,9.77,106.299,8.389,104.602,8.389"/>
	<path clip-path="url(#SVGID_2_)" fill="#262626" d="M145.699,8.389c-1.699,0-3.079,1.381-3.079,3.08c0,1.699,1.38,3.08,3.079,3.08
		c1.697,0,3.079-1.381,3.079-3.08C148.778,9.77,147.396,8.389,145.699,8.389"/>
</g>
<g>
	<defs>
		<rect id="SVGID_3_" x="0.008" width="287.992" height="57.073"/>
	</defs>
	<clipPath id="SVGID_4_">
		<use xlink:href="#SVGID_3_"  overflow="visible"/>
	</clipPath>
	<path clip-path="url(#SVGID_4_)" fill="#262626" d="M282.2,8.389c-1.699,0-3.082,1.381-3.082,3.08c0,1.699,1.383,3.08,3.082,3.08
		c1.696,0,3.079-1.381,3.079-3.08C285.279,9.77,283.896,8.389,282.2,8.389"/>
	<path clip-path="url(#SVGID_4_)" fill="#ED1C27" d="M26.295,0C11.773,0-0.001,11.771-0.001,26.294s11.774,26.294,26.296,26.294
		c14.523,0,26.296-11.771,26.296-26.294S40.818,0,26.295,0"/>
</g>
<g>
	<defs>
		<rect id="SVGID_5_" width="288" height="57.073"/>
	</defs>
	<clipPath id="SVGID_6_">
		<use xlink:href="#SVGID_5_"  overflow="visible"/>
	</clipPath>
	<polygon clip-path="url(#SVGID_6_)" fill="#FFFFFF" points="15.688,14.196 15.693,14.203 15.681,14.179 	"/>
	<polygon clip-path="url(#SVGID_6_)" fill="#FFFFFF" points="30.883,19.166 31.523,17.98 32.676,17.463 31.523,16.855 
		30.945,15.427 30.366,16.795 29.213,17.28 30.339,17.949 	"/>
	<polygon clip-path="url(#SVGID_6_)" fill="#FFFFFF" points="22.962,8.53 23.301,7.901 23.915,7.626 23.301,7.303 22.994,6.543 
		22.687,7.27 22.073,7.53 22.671,7.884 	"/>
	<polygon clip-path="url(#SVGID_6_)" fill="#FFFFFF" points="23.863,33.391 23.39,34.515 22.438,34.917 23.363,35.465 23.814,36.47 
		24.34,35.493 25.291,35.066 24.34,34.564 	"/>
	<polygon clip-path="url(#SVGID_6_)" fill="#FFFFFF" points="11.647,22.481 11.253,21.506 10.858,22.439 10.071,22.772 
		10.838,23.227 11.212,24.057 11.647,23.247 12.435,22.896 	"/>
	<path clip-path="url(#SVGID_6_)" fill="#FFFFFF" d="M43.595,40.48c-0.565-0.606-1.463-0.265-2.323-0.011
		c-0.846,0.251-0.728-0.607-0.728-0.607s0.857,0.325,1.79,0c1.271-0.444,1.448-1.82,1.448-1.82c-0.429,0.73-1.094,0.874-1.094,0.874
		c0.22-0.227,0.182-0.747,0.182-0.747c-0.335,0.778-1.414,0.886-2.075,0.247c-0.201-0.196-0.261-0.446-0.245-0.695
		c0.065-0.49,0.301-1.132,0.952-1.784c1.096-1.093,2.189-3.038,1.673-4.741c-0.454-1.899-1.11-3.113-1.944-3.675
		c-0.853-0.7-2.326-1.26-2.872-1.277c-0.562-0.212-2.157,0.274-2.433,0.381c-0.271,0.105-0.258,0.061-0.258,0.061
		s-1.564-2.584-3.646-2.764c-2.079-0.184-3.083,0.106-3.586,0.045c-0.499-0.064-1.853-0.428-2.232-0.761
		c-0.379-0.336-0.941-0.867-1.186-0.989c-0.242-0.121,0.061-1.078,0.03-1.686c-0.03-0.607,0.305-1.29-0.046-2.034
		c-0.063-0.307-0.095-0.397-0.095-0.446c0.636,1.093,1.284,0.464,1.284,0.464s-0.589,0.104-0.561-0.412
		c0.028-0.484-0.306-0.696-0.403-0.83c-0.1-0.131,0.089-0.499-0.168-0.982c-0.257-0.482-0.056-0.656-0.056-0.656
		c0.553,1.62,1.462,0.97,1.462,0.97s-0.731-0.054-0.779-1.035c-0.046-0.982-0.642-1.238-1.013-1.248
		c-0.259-0.007-0.578-0.167-0.744-0.263c-0.042-0.028-0.089-0.056-0.13-0.087c-0.225-0.17-0.411-0.419-0.587-0.639
		c-0.238-0.3-0.515-0.604-0.825-0.83c-0.235-0.171-0.534-0.272-0.811-0.361c-0.144-0.047-0.29-0.095-0.442-0.11
		c-0.188-0.017-0.391-0.021-0.594-0.01c-0.021-0.239-0.102-0.573-0.343-1.002c-0.503-0.887-1.696-0.729-1.696-0.729
		c0.314,0.136,0.974,0.523,0.812,1.141c-0.161,0.624-0.583,0.624-0.583,0.624s0.406-0.229,0.096-0.908
		c-0.252-0.554-0.912-0.447-0.912-0.447s0.881,0.49,0.219,1.087c-0.406,0.368-1.053-0.813-1.795-0.466
		c-0.691,0.326-0.292,1-0.274,1.091c-0.055-0.017-0.123-0.029-0.173-0.029l-0.013,0.003l-0.077-0.044
		c-0.066-0.153-0.218-0.262-0.396-0.262l-0.058,0.011l-0.137-0.076c-0.068-0.113-0.188-0.195-0.33-0.195l-0.015,0.005l-0.088-0.05
		c-0.062-0.134-0.197-0.227-0.354-0.227l-0.041,0.007l-0.129-0.07c-0.055-0.132-0.187-0.226-0.34-0.226l-0.049,0.011l-0.062-0.035
		c-0.05-0.143-0.183-0.248-0.345-0.248c-0.026,0-0.052,0.008-0.078,0.014l-0.115-0.064c-0.046-0.134-0.168-0.234-0.317-0.234
		l-0.074,0.015l-0.13-0.07c-0.048-0.109-0.156-0.186-0.283-0.186l-0.039,0.007l-0.093-0.051c-0.034-0.131-0.15-0.23-0.293-0.23
		c-0.032,0-0.059,0.01-0.088,0.017l-0.052-0.028c-0.035-0.112-0.136-0.194-0.26-0.194l-0.065,0.012L11.506,9.96
		c-0.032-0.108-0.128-0.189-0.245-0.189l-0.07,0.014L11.145,9.76c-0.029-0.114-0.126-0.202-0.25-0.202
		c-0.029,0-0.057,0.007-0.082,0.017l-0.077-0.042c-0.024-0.097-0.108-0.172-0.214-0.172l-0.069,0.014l-0.32-0.177
		c0,0-0.782-0.331-0.456,0.137c0.036,0.054,0.157,0.149,0.339,0.28c0.016,0.108,0.104,0.194,0.218,0.194l0.042-0.008l0.073,0.051
		c0.017,0.13,0.123,0.231,0.255,0.231l0.064-0.013l0.055,0.036c0.032,0.108,0.128,0.189,0.248,0.189l0.025-0.004
		c0.03,0.019,0.062,0.039,0.094,0.06c0.039,0.109,0.138,0.186,0.26,0.186l0.018-0.002c0.03,0.019,0.058,0.038,0.087,0.056
		c0.041,0.126,0.154,0.222,0.293,0.222l0.036-0.007c0.032,0.019,0.064,0.042,0.098,0.064c0.04,0.123,0.153,0.216,0.292,0.216
		l0.034-0.008c0.045,0.031,0.091,0.059,0.134,0.087c0.05,0.13,0.173,0.225,0.318,0.225l0.025-0.005
		c0.047,0.03,0.096,0.061,0.144,0.092c0.05,0.143,0.185,0.246,0.344,0.246l0.034-0.006c0.026,0.017,0.055,0.034,0.081,0.051
		c0.055,0.135,0.188,0.23,0.34,0.23l0.017-0.003c0.044,0.027,0.088,0.055,0.13,0.08c0.056,0.149,0.194,0.256,0.362,0.256
		l0.033-0.006l0.062,0.04c0.06,0.141,0.199,0.24,0.36,0.24l0.02-0.003c0.037,0.024,0.072,0.045,0.108,0.069
		c0.063,0.155,0.217,0.268,0.398,0.268l0.025-0.006l0.062,0.04c0.062,0.153,0.208,0.259,0.38,0.265l0.017,0.054
		c-0.183,0.039-0.596,0.151-0.772,0.41c-0.229,0.339-0.362,0.587-0.575,0.608c0,0,0.178,0.332,0.821-0.21
		c0.604-0.508,1.023-0.031,1.075,0.033c0.012,0.032-0.047,0.017-0.14,0.11c-0.137,0.136-0.169,0.136-0.366,0.334
		c-0.196,0.198-0.183,0.258-0.423,0.516c-0.246,0.257-0.199,0.182-0.427,0.379c-0.228,0.2-0.44,0.289-0.593,0.517
		c-0.152,0.229-0.272,0.29-0.212,0.518c0.06,0.227-0.213,0.638,0.303,1.019c0.518,0.378,0.532,0.151,0.64,0.151
		c0.104,0,0.104,0.182,0.334,0.166c0.228-0.015,0.607-0.029,0.683-0.213c0.077-0.183,0.289-0.364,0.501-0.471
		c0.214-0.106,1.808-0.09,2.386-0.698c0.578-0.607,0.333-0.122,0.333-0.122s-0.212,1.187-0.575,1.794
		c-0.364,0.606-0.607,1.851-0.698,2.277c-0.092,0.425-0.335,2.824-0.365,3.1c-0.032,0.272-0.819,0.151-1.003,1.214
		c-0.183,1.066,0.061,2.98,0.061,2.98s-2.097-0.214-2.613-0.304c-0.518-0.092-1.094-0.061-1.307,0.395
		c-0.213,0.455-0.457,0.152-0.546,0.759c-0.093,0.608,0.181,0.728,0.241,1.093c0.061,0.366,0.214,1.458,0.214,2.005
		c0,0.548-0.091,1.398,0.091,1.58c0.183,0.181,0.577-0.029,0.609,0.154c0.03,0.182,0.15,0.153,0.302,0.455
		c0.153,0.306,0.577,1.276,1.671,0.973c0.183-0.883-0.061-1.275-0.483-1.644c-0.275-0.06-0.335,0.062-0.335,0.062l-0.153-0.151
		c0,0,0.182-0.244,0.121-0.424c-0.062-0.184-0.607-0.397-0.789-1.126c-0.183-0.73,0-1.641-0.183-2.066
		c-0.183-0.424,0.882-0.395,1.032-0.364c0.153,0.028,1.368,1.338,2.918,1.033c0.396,0.214,1.033,0.76,1.033,0.76
		s-0.516,1.548-0.607,2.827c-0.396,0.21-0.306,0.728-0.364,1.001c-0.062,0.273-0.273,0.363-0.335,1.064
		c-0.062,0.696-0.183,0.912-0.364,1.336c-0.184,0.424-0.275,0.758-0.639,1.064c-0.365,0.304-0.698,0.272-0.791,0.546
		c-0.089,0.274-0.273,0.486-0.577,0.638c-0.302,0.152-0.698,0.667-0.819,1.064c-0.122,0.396,0.881,0.882,1.852,0.425
		c0.245-0.335,0.031-0.882,0.031-0.882s0.336,0,0.639-0.151c0.305-0.153,0.456-0.728,0.547-1.125
		c0.091-0.393,1.338-2.733,1.52-2.915c0.183-0.183,0.121-0.485,0.121-0.485l0.305-0.306c0,0,0.274-1.307,0.396-1.582
		c0.121-0.271,1.244-2.002,1.244-2.002s0-0.215,0.121-0.67c0.121-0.458,2.159,1.155,6.594-0.03c0,0.426-0.03,1.336,0.214,1.64
		c0.243,0.306,0.985,0.975,1.229,1.188c0.244,0.21,0.167,0.544,0.382,0.941c0.214,0.395,0.607,0.424,1.002,0.882
		c0.395,0.451,0.366,0.969,0.274,1.152c-0.093,0.184-2.248,2.035-2.432,2.218c-0.182,0.184-0.637,0.274-0.821,0.728
		c-0.181,0.456-0.728,0.517-0.728,0.517s-0.427,0.091-0.518,0.368c-0.091,0.271-0.426,0.91-0.334,1.182
		c0.092,0.275,1.61,0.122,1.854-0.18c0.243-0.307-0.091-0.913,0.03-0.943c0.122-0.031,0.271-0.031,0.271-0.031
		s0.791,0.151,0.974-0.272c0.181-0.428,0.124-0.549,0.124-0.549s1.79-1.396,2.184-1.518c0.397-0.123,1.218-0.698,1.309-1.002
		c0.092-0.308-0.15-0.791-0.458-1.156c-0.304-0.365-0.242-0.637-0.242-0.637s-0.15-1.518-0.183-1.826
		c-0.028-0.303,1.155,1.491,2.826,1.491c0.426,0.487,0.73,0.699,0.73,0.699l-1.793,1.943c0,0-0.578,0.091-0.789,0.58
		c-0.215,0.486,0.061,1.608-0.062,2.003c-0.12,0.395,1.033,0.61,1.397,0.852c0.426-0.577,0.426-1.611,0.214-1.701
		c-0.214-0.092-0.608,0-0.578-0.215c0.03-0.21,0.184-0.272,0.396-0.302c0.211-0.031,0.183-0.486,0.211-0.608
		c0.031-0.121,2.343-2.188,2.343-2.188l-0.396,0.94c-0.425,0.7-0.576,1.975-0.123,2.524c0.457,0.545,0.654,0.471,0.654,0.471
		s0.807,2.323,2.75,1.959c0.338-0.127,0.482-0.136,0.542-0.129c1.787,0.964,2.076-0.192,2.836-0.694
		c0.734-0.482,0.9,0.528,0.9,0.528S44.148,41.08,43.595,40.48 M34.763,32.068c-0.018,0.041-0.056,0.151-0.078,0.335
		c-0.029,0.335,0.013,0.766,0.013,0.829c0,0.06-0.077,0.143-0.175,0.143c-0.101,0.017-0.229-0.058-0.363-0.406l-0.001-0.005
		c-0.045-0.104-0.081-0.21-0.093-0.303c-0.04-0.236,0.094-0.244,0.339-0.368c0.187-0.113,0.368-0.246,0.368-0.246L34.763,32.068z
		 M37.127,28.75c-0.139,0.471-1.293,1.4-1.019,0.838c0.276-0.563,0.016-2.098,0.016-2.098C36.868,26.701,37.266,28.281,37.127,28.75
		"/>
	<polygon clip-path="url(#SVGID_6_)" fill="#FFFFFF" points="39.508,22.568 39.909,21.818 40.641,21.492 39.909,21.106 
		39.547,20.203 39.18,21.067 38.451,21.376 39.162,21.798 	"/>
</g>
</svg>
